<svg width="25" height="25" viewBox="0 0 25 25" fill="none" xmlns="http://www.w3.org/2000/svg">
<path d="M22.3739 10.9811L22.3757 10.9829L23.6144 12.2216C23.9447 12.5519 23.942 13.082 23.6163 13.4042L23.6143 13.4062L12.773 24.2531C12.7729 24.2531 12.7729 24.2531 12.7729 24.2532C12.4426 24.5834 11.9126 24.5806 11.5904 24.255L11.5886 24.2531L0.747132 13.4116C0.41685 13.0814 0.419583 12.5513 0.745242 12.2291L0.747132 12.2272L1.98584 10.9885C2.3166 10.6578 2.85891 10.6633 3.1849 11.003C3.18501 11.0031 3.18511 11.0032 3.18521 11.0033L9.58407 17.7202L10.4461 18.625L10.4461 17.3753L10.4461 1.33913C10.4461 0.873173 10.8193 0.499999 11.2852 0.499999L13.0707 0.499999C13.5367 0.499999 13.9099 0.873174 13.9099 1.33914L13.9099 17.3753L13.9099 18.625L14.7719 17.7202L21.1774 10.9966L21.1781 10.9959C21.5037 10.6527 22.0434 10.6472 22.3739 10.9811Z" stroke="currentColor" stroke-opacity="0.5"/>
</svg>
