<svg width="25" height="25" viewBox="0 0 25 25" fill="none" xmlns="http://www.w3.org/2000/svg">
<path d="M1.98748 14.0189L1.98563 14.0171L0.746925 12.7784C0.416641 12.4481 0.419375 11.918 0.745029 11.5958L0.747016 11.5938L11.5883 0.746925C11.5884 0.746894 11.5884 0.746864 11.5884 0.746834C11.9187 0.416642 12.4487 0.419405 12.7709 0.745034L12.7728 0.746925L23.6142 11.5883C23.9445 11.9186 23.9417 12.4487 23.6161 12.7709L23.6142 12.7728L22.3755 14.0115C22.0447 14.3422 21.5024 14.3367 21.1764 13.997C21.1763 13.9969 21.1762 13.9968 21.1761 13.9967L14.7773 7.27983L13.9152 6.37497V7.62471V23.6609C13.9152 24.1268 13.5421 24.5 13.0761 24.5H11.2906C10.8246 24.5 10.4515 24.1268 10.4515 23.6609V7.62471V6.37501L9.58944 7.27982L3.18391 14.0034L3.18324 14.0041C2.8576 14.3473 2.31792 14.3528 1.98748 14.0189Z" stroke="currentColor" stroke-opacity="0.5"/>
</svg>
