<svg width="13" height="20" viewBox="0 0 13 20" fill="none" xmlns="http://www.w3.org/2000/svg">
<path d="M11.1317 4.48036L11.1207 4.47454L11.0934 4.46289C11.0989 4.47454 11.1153 4.48036 11.1317 4.48036Z" fill="currentColor"/>
<path d="M11.2957 5.85016L11.3176 5.83865L11.323 5.8329L11.3285 5.82715C11.3176 5.8329 11.3066 5.84441 11.2957 5.85016Z" fill="currentColor"/>
<path d="M11.1644 4.50948L11.1425 4.48647L11.1261 4.48071C11.137 4.49222 11.1479 4.50372 11.1644 4.50948Z" fill="currentColor"/>
<path d="M6.03983 17.8801C6.02342 17.8859 6.00702 17.8974 5.99608 17.9146L6.00702 17.9031C6.02342 17.8916 6.03436 17.8859 6.03983 17.8801Z" fill="currentColor"/>
<path d="M9.02054 17.248C9.02054 17.2305 9.0096 17.2305 9.01507 17.3007C9.01507 17.2949 9.01507 17.289 9.02054 17.2832C9.01507 17.2773 9.01507 17.2656 9.02054 17.248Z" fill="currentColor"/>
<path d="M8.70888 17.8801C8.69248 17.8859 8.67607 17.8974 8.66513 17.9146L8.67607 17.9031C8.69248 17.8916 8.70341 17.8859 8.70888 17.8801Z" fill="currentColor"/>
<path d="M3.94521 18.0262C3.93427 18.0147 3.91787 18.0089 3.90146 18.0032C3.9124 18.0089 3.9288 18.0147 3.93427 18.0204L3.94521 18.0262Z" fill="currentColor"/>
<path d="M3.48035 17.5466C3.48035 17.529 3.47488 17.5056 3.46394 17.488C3.46941 17.5056 3.47488 17.5232 3.48035 17.5466Z" fill="currentColor"/>
<path d="M6.64146 8.90042C5.99611 9.19897 5.25778 9.53265 4.30616 9.53265C3.90692 9.53265 3.51315 9.47411 3.13031 9.35703L3.7866 16.5925C3.80848 16.8969 3.93973 17.1779 4.14756 17.3828C4.35538 17.5877 4.62884 17.7048 4.91323 17.7048C4.91323 17.7048 5.84845 17.7574 6.16018 17.7574C6.4938 17.7574 7.50011 17.7048 7.50011 17.7048C7.7845 17.7048 8.05796 17.5935 8.26578 17.3828C8.47361 17.1779 8.60486 16.8969 8.62674 16.5925L9.33225 8.60187C9.01505 8.48479 8.69784 8.40869 8.34235 8.40869C7.71887 8.40869 7.22119 8.637 6.64146 8.90042Z" fill="currentColor"/>
<path d="M1.09038 5.82129L1.10132 5.83294L1.10679 5.83876C1.10679 5.82711 1.10132 5.82129 1.09038 5.82129Z" fill="currentColor"/>
<path d="M12.3731 5.14792L12.2747 4.61521C12.1872 4.13519 11.9848 3.67858 11.5254 3.50881C11.3778 3.45613 11.2082 3.42686 11.0988 3.31563C10.984 3.19856 10.9512 3.02294 10.9238 2.85903C10.8746 2.55462 10.8309 2.25022 10.7816 1.94581C10.7379 1.68238 10.7051 1.38969 10.5957 1.15553C10.448 0.833561 10.1472 0.646234 9.84642 0.523301C9.69329 0.464762 9.53468 0.412076 9.37608 0.365245C8.62682 0.154503 7.83927 0.0784014 7.06813 0.0315699C6.14385 -0.0211157 5.21411 -0.00940781 4.28983 0.0784014C3.60073 0.142795 2.87881 0.22475 2.22798 0.482324C1.98735 0.575987 1.74124 0.687212 1.56076 0.886246C1.33652 1.12626 1.26543 1.50676 1.4295 1.80532C1.54435 2.02191 1.74124 2.17411 1.94906 2.27363C2.21705 2.40242 2.50144 2.50194 2.7913 2.56633C3.60073 2.75951 4.43203 2.82976 5.25786 2.86488C6.1712 2.90586 7.08453 2.87073 7.99787 2.77122C8.2221 2.74195 8.44634 2.71268 8.67057 2.67755C8.93309 2.63658 9.10263 2.26192 9.02606 2.0102C8.93309 1.69994 8.68151 1.58287 8.40258 1.6297C8.35883 1.63555 8.32055 1.64141 8.27679 1.64726L8.24945 1.65311C8.151 1.66482 8.05803 1.67653 7.95959 1.68824C7.7627 1.71165 7.56581 1.72921 7.36346 1.74678C6.92046 1.7819 6.472 1.79361 6.02353 1.79361C5.586 1.79361 5.14848 1.7819 4.71095 1.74678C4.50859 1.73507 4.31171 1.71751 4.11482 1.69409C4.02184 1.68238 3.93434 1.67068 3.84683 1.65897L3.75933 1.64726H3.74292L3.65542 1.63555C3.47494 1.60628 3.29446 1.57116 3.11398 1.53018C3.09757 1.52433 3.08116 1.51262 3.07022 1.50091C3.05929 1.4892 3.05382 1.46579 3.05382 1.44823C3.05382 1.43066 3.05929 1.40725 3.07022 1.39554C3.08116 1.38383 3.09757 1.37212 3.11398 1.36627H3.11945C3.27258 1.33115 3.43118 1.30188 3.58979 1.27261C3.64448 1.2609 3.6937 1.25504 3.74839 1.24919C3.84683 1.24334 3.94528 1.22578 4.04372 1.20821C4.8969 1.11455 5.75555 1.07943 6.61419 1.1087C7.02984 1.1204 7.44549 1.14967 7.86114 1.19065C7.94865 1.20236 8.04162 1.20821 8.12913 1.21992C8.16194 1.22578 8.19476 1.23163 8.23304 1.23163L8.30414 1.24334C8.5065 1.27261 8.70338 1.31358 8.90574 1.36042C9.20107 1.43066 9.57844 1.45408 9.7097 1.79361C9.75345 1.90483 9.76986 2.02191 9.79173 2.13899L9.81908 2.28534V2.29119C9.89017 2.63658 9.9558 2.98196 10.0269 3.32734C10.0324 3.35076 10.0324 3.38003 10.0269 3.40344C10.0214 3.42686 10.0105 3.45613 9.99956 3.47369C9.98315 3.49711 9.96674 3.51467 9.94487 3.52638C9.92299 3.53808 9.90111 3.54979 9.87924 3.54979L9.83548 3.55565L9.79173 3.5615C9.66047 3.57906 9.52375 3.59662 9.39249 3.61419C9.12997 3.64346 8.86746 3.67273 8.60494 3.69614C8.07991 3.74297 7.56034 3.77224 7.03531 3.7898C6.76733 3.79566 6.49934 3.80151 6.23136 3.80151C5.16488 3.80151 4.10388 3.73712 3.04835 3.60248C2.9335 3.59077 2.81865 3.57321 2.7038 3.55565C2.7913 3.56735 2.63817 3.54394 2.61082 3.54394C2.53972 3.53223 2.46316 3.52052 2.39206 3.50881C2.14595 3.46784 1.90531 3.42101 1.6592 3.38003C1.36387 3.32734 1.08495 3.35661 0.81696 3.50881C0.598197 3.6376 0.423186 3.83078 0.308335 4.07079C0.193484 4.32251 0.16067 4.6035 0.105979 4.87278C0.0567574 5.14792 -0.0252791 5.44062 0.00753546 5.72161C0.0731645 6.32456 0.466939 6.8163 1.03572 6.92752C1.57169 7.03289 2.10766 7.11485 2.6491 7.18509C4.76564 7.46023 6.90952 7.49535 9.03153 7.28461C9.20654 7.26705 9.37608 7.24949 9.55109 7.22607C9.60578 7.22022 9.66047 7.22607 9.7097 7.24363C9.75892 7.2612 9.80814 7.29632 9.84642 7.3373C9.88471 7.37827 9.91205 7.42511 9.93393 7.48365C9.95034 7.53633 9.96127 7.59487 9.9558 7.65341L9.90111 8.21539C9.79173 9.3452 9.68235 10.475 9.57844 11.6107C9.46359 12.799 9.3542 13.9874 9.23935 15.1757C9.20654 15.5094 9.17373 15.8431 9.14091 16.1768C9.1081 16.5046 9.1081 16.8441 9.04794 17.1719C8.95496 17.6812 8.63228 17.9973 8.16194 18.1144C7.72989 18.2198 7.28689 18.2725 6.84389 18.2783C6.35168 18.2783 5.85946 18.2608 5.36724 18.2608C4.84221 18.2666 4.19686 18.2139 3.79214 17.7924C3.43665 17.4236 3.38743 16.85 3.33821 16.3524C3.27258 15.6967 3.20695 15.0352 3.14679 14.3796L2.7913 10.7209L2.5616 8.35003C2.55613 8.30905 2.55613 8.27393 2.55066 8.23295C2.52332 7.95196 2.33737 7.67683 2.04204 7.68853C1.79046 7.70024 1.50607 7.92854 1.53341 8.23295L1.70295 9.98913L2.05844 13.6186C2.15689 14.6489 2.2608 15.6792 2.35924 16.7153C2.38112 16.9144 2.39753 17.1134 2.4194 17.3066C2.52878 18.3895 3.29993 18.9691 4.25702 19.133C4.81486 19.2267 5.38365 19.2501 5.95243 19.2559C6.67982 19.2676 7.41268 19.2969 8.12366 19.1564C9.17919 18.9515 9.97221 18.1964 10.0871 17.0197C10.1199 16.6802 10.1527 16.3407 10.1855 16.007C10.2949 14.8889 10.3988 13.7708 10.5082 12.6468L10.8582 8.98811L11.0168 7.31388C11.0223 7.23193 11.0551 7.14997 11.1098 7.09143C11.1645 7.03289 11.2301 6.98606 11.3067 6.97435C11.6075 6.90996 11.8973 6.80459 12.1106 6.55872C12.4278 6.17236 12.4935 5.66307 12.3731 5.14792ZM1.00838 5.51086C1.01385 5.51086 1.00291 5.55184 1.00291 5.5694C0.99744 5.54013 0.99744 5.51086 1.00838 5.51086ZM1.03572 5.75088C1.03572 5.75088 1.04666 5.75673 1.05213 5.77429C1.04119 5.76258 1.03572 5.75088 1.03572 5.75088ZM1.06307 5.79185C1.07401 5.81527 1.07948 5.82698 1.06307 5.79185V5.79185ZM11.2629 5.76844C11.1535 5.87966 10.9895 5.93235 10.8309 5.95576C9.02059 6.24261 7.17751 6.38896 5.34536 6.32456C4.03278 6.27773 2.73661 6.11968 1.43497 5.9265C1.30918 5.90893 1.17245 5.87966 1.08495 5.78015C0.920873 5.59282 1.00291 5.21231 1.04666 4.97816C1.08495 4.76741 1.16151 4.48642 1.39668 4.45715C1.75764 4.41032 2.18423 4.57423 2.53972 4.63277C2.97178 4.70302 3.40931 4.76156 3.84136 4.80254C5.70085 4.98401 7.59863 4.95474 9.44718 4.69131C9.78626 4.64448 10.1199 4.58594 10.459 4.52155C10.7598 4.46301 11.0879 4.35764 11.2684 4.68546C11.3942 4.91376 11.4106 5.21231 11.3887 5.46989C11.3887 5.58697 11.3395 5.69234 11.2629 5.76844Z" fill="currentColor"/>
</svg>
