<svg width="25" height="25" viewBox="0 0 25 25" fill="none" xmlns="http://www.w3.org/2000/svg">
<path d="M23.9066 3.91593L23.9064 3.9161L15.6837 12.1466L15.3303 12.5003L15.684 12.8537L23.9144 21.0763C23.9144 21.0763 23.9145 21.0764 23.9145 21.0764C24.6952 21.8573 24.6952 23.1258 23.9144 23.9066C23.1335 24.6874 21.8649 24.6874 21.0841 23.9066L21.0839 23.9064L12.8534 15.6837L12.4997 15.3303L12.1463 15.684L3.92374 23.9144C3.92368 23.9144 3.92363 23.9145 3.92357 23.9145C3.14271 24.6952 1.87423 24.6952 1.09344 23.9144C0.312598 23.1335 0.312598 21.8649 1.09344 21.0841L1.09361 21.0839L9.31631 12.8534L9.6697 12.4997L9.31598 12.1463L1.08563 3.92374C1.08558 3.92368 1.08552 3.92363 1.08546 3.92357C0.304789 3.14271 0.304845 1.87423 1.08563 1.09344C1.86647 0.312598 3.13509 0.312598 3.91593 1.09344L3.9161 1.09361L12.1466 9.31632L12.5003 9.6697L12.8537 9.31598L21.0763 1.08563C21.0763 1.08558 21.0764 1.08552 21.0764 1.08546C21.8573 0.304789 23.1258 0.304845 23.9066 1.08563C24.6874 1.86647 24.6874 3.13509 23.9066 3.91593Z" stroke="currentColor" stroke-opacity="0.5"/>
</svg>
